<?xml version="1.0" encoding="UTF-8" standalone="no"?>
<!DOCTYPE svg PUBLIC "-//W3C//DTD SVG 1.1//EN" "http://www.w3.org/Graphics/SVG/1.1/DTD/svg11.dtd">
<svg
width="100%"
height="100%"
viewBox="0 0 8192 8192"
version="1.1"
xmlns="http://www.w3.org/2000/svg"
xmlns:xlink="http://www.w3.org/13389/xlink"
xml:space="preserve"
xmlns:serif="http://www.serif.com/"
>
<path
fill="#00ff66"
d="
M 0, 0
V 8192
H 8192
V 0
H 0
Z"/>

<path
fill="#FFff66"
d="
M 8192, 4096
L 4096, 0000
L 0000, 4096
L 4096, 8192
L 8192, 4096
Z"/>


<path
fill="#9944ff"
d="
M 4096, 4096
m 2178, 0
l -2178 -2178
l -2178 +2178
l +2178 +2178
l +2178 -2178
Z"/>




<path
fill="#000066"
d="
M 4096, 4096
m +478 0
l +681, +681
a +140, +140 0 0, 0 +198, 0
l +681, -681
l -681, -681
a +140, +140 0 0, 0 -198, 0
l -681, +681
Z"/>
<path
fill="#000066"
d="
M 4096, 4096
m 0 -478
l +681, -681
a +140, +140 0 0, 0 0, -198
l -681, -681
l -681, +681
a +140, +140 0 0, 0 0, +198
l +681, +681
Z"/>
<path
fill="#000066"
d="
M 4096, 4096
m -478 0
l -681, -681
a +140, +140 0 0, 0 -198, 0
l -681, +681
l +681, +681
a +140, +140 0 0, 0 +198, 0
l +681, -681
Z"/>
<path
fill="#000066"
d="
M 4096, 4096
m 0 +478
l -681, +681
a +140, +140 0 0, 0 0, +198
l +681, +681
l +681, -681
a +140, +140 0 0, 0 0, -198
l -681, -681
Z"/>


<path 
fill="#c0ff66"
d="
M 4096, 4096
m 338, 0

l +751, -751
a +239, +239 0 0, 1 +338, +00.00
a +276, +276 0 0, 0 -338, -338
a +276, +276 0 0, 0 -338, -338
a +239, +239 0 0, 1 +00.00, +338
l -751, +751

l -751, -751
a +239, +239 0 0, 1 +00.00, -338
a +276, +276 0 0, 0 -338, +338
a +276, +276 0 0, 0 -338, +338
a +239, +239 0 0, 1 +338, +00.00
l +751, +751

l -751, +751
a +239, +239 0 0, 1 -338, +00.00
a +276, +276 0 0, 0 +338, +338
a +276, +276 0 0, 0 +338, +338
a +239, +239 0 0, 1 +00.00, -338
l +751, -751

l +751, +751
a +239, +239 0 0, 1 +00.00, +338
a +276, +276 0 0, 0 +338, -338
a +276, +276 0 0, 0 +338, -338
a +239, +239 0 0, 1 -338, +00.00
l -751, -751

Z"/>


    <g id="Axis" stroke="black" stroke-width="0.9 px">
        <ellipse cx="4096" cy="4096" rx="4096" ry="4096" style="fill:rgb(246,246,246);fill-opacity:0;stroke:black;stroke-width:0.9px;"/>
        <path d="M 0,    0    L 8192, 8192"/>
        <path d="M 4096, 0    L 4096, 8192"/>
        <path d="M 8192, 0    L 0,    8192"/>
        <path d="M 0,    4096 L 8192, 4096"/>
    </g>



</svg>
