<?xml version="1.0" encoding="UTF-8" standalone="no"?>
<!DOCTYPE svg PUBLIC "-//W3C//DTD SVG 1.1//EN" "http://www.w3.org/Graphics/SVG/1.1/DTD/svg11.dtd">
<svg
width="100%"
height="100%"
viewBox="0 0 4096 4096"
version="1.1"
xmlns="http://www.w3.org/2000/svg"
xmlns:xlink="http://www.w3.org/13389/xlink"
xml:space="preserve"
xmlns:serif="http://www.serif.com/"
>
<path
fill="#00ff66"
d="
M 0, 0
V 4096
H 4096
V 0
H 0
Z"/>

<path
fill="#FFff66"
d="
M 4096, 2048
L 2048, 0000
L 0000, 2048
L 2048, 4096
L 4096, 2048
Z"/>



<path
fill="#000066"
d="
M 2048, 2048
m +338 0
m +140 0
l +570, +570
a +140, +140 0 0, 0 +198, 0
l +570, -570
l -570, -570
a +140, +140 0 0, 0 -198, 0
l -570, +570
Z"/>
<path
fill="#000066"
d="
M 2048, 2048
m 0 -338
m 0 -140
l +570, -570
a +140, +140 0 0, 0 0, -198
l -570, -570
l -570, +570
a +140, +140 0 0, 0 0, +198
l +570, +570
Z"/>
<path
fill="#000066"
d="
M 2048, 2048
m -338 0
m -140 0
l -570, -570
a +140, +140 0 0, 0 -198, 0
l -570, +570
l +570, +570
a +140, +140 0 0, 0 +198, 0
l +570, -570
Z"/>
<path
fill="#000066"
d="
M 2048, 2048
m 0 +338
m 0 +140
l -570, +570
a +140, +140 0 0, 0 0, +198
l +570, +570
l +570, -570
a +140, +140 0 0, 0 0, -198
l -570, -570
Z"/>


<path 
fill="#c0ff66"
d="
M 2048, 2048
m 338, 0

l +640, -640
a +239, +239 0 0, 1 +338, +00.00
a +276, +276 0 0, 0 -338, -338
a +276, +276 0 0, 0 -338, -338
a +239, +239 0 0, 1 +00.00, +338
l -640, +640

l -640, -640
a +239, +239 0 0, 1 +00.00, -338
a +276, +276 0 0, 0 -338, +338
a +276, +276 0 0, 0 -338, +338
a +239, +239 0 0, 1 +338, +00.00
l +640, +640

l -640, +640
a +239, +239 0 0, 1 -338, +00.00
a +276, +276 0 0, 0 +338, +338
a +276, +276 0 0, 0 +338, +338
a +239, +239 0 0, 1 +00.00, -338
l +640, -640

l +640, +640
a +239, +239 0 0, 1 +00.00, +338
a +276, +276 0 0, 0 +338, -338
a +276, +276 0 0, 0 +338, -338
a +239, +239 0 0, 1 -338, +00.00
l -640, -640

Z"/>


    <g id="Axis" stroke="black" stroke-width="0.9 px">
        <ellipse cx="2048" cy="2048" rx="2048" ry="2048" style="fill:rgb(246,246,246);fill-opacity:0;stroke:black;stroke-width:0.9px;"/>
        <path d="M 0,    0    L 4096, 4096"/>
        <path d="M 2048, 0    L 2048, 4096"/>
        <path d="M 4096, 0    L 0,    4096"/>
        <path d="M 0,    2048 L 4096, 2048"/>
    </g>



</svg>
