<?xml version="1.0" encoding="UTF-8" standalone="no"?>
<!DOCTYPE svg PUBLIC "-//W3C//DTD SVG 1.1//EN" "http://www.w3.org/Graphics/SVG/1.1/DTD/svg11.dtd">
<svg width="100%" height="100%" viewBox="0 0 2048 2048" version="1.1" xmlns="http://www.w3.org/2000/svg" xmlns:xlink="http://www.w3.org/1999/xlink" xml:space="preserve" xmlns:serif="http://www.serif.com/" style="fill-rule:evenodd;clip-rule:evenodd;stroke-linecap:round;stroke-linejoin:round;stroke-miterlimit:1.5;">
    <g transform="matrix(0.877384,-0.877384,0.767445,0.767445,-582.572,1239.73)">
        <rect x="490.972" y="280.206" width="1097.11" height="1254.27" style="fill:rgb(246,246,246);"/>
    </g>
    <g id="Axis" stroke="black" stroke-width="0.9 px">
        <ellipse cx="1024" cy="1024" rx="1024" ry="1024" style="fill:rgb(246,246,246);fill-opacity:0;stroke:black;stroke-width:0.9px;"/>
        <path d="M 0,    0    L 2048, 2048"/>
        <path d="M 1024, 0    L 1024, 2048"/>
        <path d="M 2048, 0    L 0,    2048"/>
        <path d="M 0,    1024 L 2048, 1024"/>
    </g>


<path
fill="#ff6677"
d="
M 1024, 1024
m 0 -24

l +500, -500
a +24, +24 0 0, 0 0, -24
l -500, -500
l -500, +500
a +24, +24 0 0, 0 0, +24
l +500, +500

Z"/>

<path
fill="#ff6677"
d="
M 1024, 1024
m 0 +24

l -500, +500
a +24, +24 0 0, 0 0, +24
l +500, +500
l +500, -500
a +24, +24 0 0, 0 0, -24
l -500, -500

Z"/>

<path
fill="#ff6677"
d="
M 1024, 1024
m -24, 0

l -500, -500
a +24, +24 0 0, 0 -24, 0
l -500, +500
l +500, +500
a +24, +24 0 0, 0 +24, 0
l +500, -500

Z"/>

<path
fill="#ff6677"
d="
M 1024, 1024
m +24, 0

l +500, +500
a +24, +24 0 0, 0 +24, 0
l +500, -500
l -500, -500
a +24, +24 0 0, 0 -24, 0
l -500, +500

Z"/>

</svg>
