<?xml version="1.0" encoding="UTF-8" standalone="no"?>
<!DOCTYPE svg PUBLIC "-//W3C//DTD SVG 1.1//EN" "http://www.w3.org/Graphics/SVG/1.1/DTD/svg11.dtd">
<svg width="100%" height="100%" viewBox="0 0 18150 18150" version="1.1" xmlns="http://www.w3.org/2000/svg" xmlns:xlink="http://www.w3.org/1999/xlink" xml:space="preserve" xmlns:serif="http://www.serif.com/" style="fill-rule:evenodd;clip-rule:evenodd;stroke-linejoin:round;stroke-miterlimit:2;">
    <rect x="0" y="0" width="18150" height="18150" style="fill:#bfffff;fill-rule:nonzero;"/>
    <path d="M11066.7,9075l2837.5,2837.5c109.356,109.367 257.839,170.875 412.5,170.875c154.66,0 303.144,-61.508 412.5,-170.875l2837.5,-2837.5l-2837.5,-2837.5c-109.356,-109.367 -257.84,-170.875 -412.5,-170.875c-154.661,-0 -303.144,61.508 -412.5,170.875l-2837.5,2837.5Z" style="fill:#191970;fill-rule:nonzero;"/>
    <path d="M9075,7083.33l2837.5,-2837.5c109.367,-109.356 170.875,-257.839 170.875,-412.5c0,-154.66 -61.508,-303.144 -170.875,-412.5l-2837.5,-2837.5l-2837.5,2837.5c-109.367,109.356 -170.875,257.84 -170.875,412.5c-0,154.661 61.508,303.144 170.875,412.5l2837.5,2837.5Z" style="fill:#191970;fill-rule:nonzero;"/>
    <path d="M7083.33,9075l-2837.5,-2837.5c-109.356,-109.367 -257.839,-170.875 -412.5,-170.875c-154.66,-0 -303.144,61.508 -412.5,170.875l-2837.5,2837.5l2837.5,2837.5c109.356,109.367 257.84,170.875 412.5,170.875c154.661,0 303.144,-61.508 412.5,-170.875l2837.5,-2837.5Z" style="fill:#191970;fill-rule:nonzero;"/>
    <path d="M9075,11066.7l-2837.5,2837.5c-109.367,109.356 -170.875,257.839 -170.875,412.5c-0,154.66 61.508,303.144 170.875,412.5l2837.5,2837.5l2837.5,-2837.5c109.367,-109.356 170.875,-257.84 170.875,-412.5c0,-154.661 -61.508,-303.144 -170.875,-412.5l-2837.5,-2837.5Z" style="fill:#191970;fill-rule:nonzero;"/>
    <path d="M10483.3,9075l3129.17,-3129.17c186.684,-186.687 440.154,-291.679 704.167,-291.679c264.013,0 517.482,104.992 704.166,291.679c25.982,-97.022 39.141,-197.032 39.141,-297.473c-0,-630.872 -519.129,-1150 -1150,-1150c-100.442,-0 -200.451,13.159 -297.474,39.14c25.981,-97.023 39.14,-197.032 39.14,-297.474c0,-630.871 -519.128,-1150 -1150,-1150c-100.441,0 -200.451,13.159 -297.473,39.141c186.687,186.684 291.679,440.153 291.679,704.166c-0,264.013 -104.992,517.483 -291.679,704.167l-3129.17,3129.17l-3129.17,-3129.17c-186.687,-186.684 -291.679,-440.154 -291.679,-704.167c0,-264.013 104.992,-517.482 291.679,-704.166c-97.022,-25.982 -197.032,-39.141 -297.473,-39.141c-630.872,0 -1150,519.129 -1150,1150c-0,100.442 13.159,200.451 39.14,297.474c-97.023,-25.981 -197.032,-39.14 -297.474,-39.14c-630.871,-0 -1150,519.128 -1150,1150c0,100.441 13.159,200.451 39.141,297.473c186.684,-186.687 440.153,-291.679 704.166,-291.679c264.013,0 517.483,104.992 704.167,291.679l3129.17,3129.17l-3129.17,3129.17c-186.684,186.687 -440.154,291.679 -704.167,291.679c-264.013,-0 -517.482,-104.992 -704.166,-291.679c-25.982,97.022 -39.141,197.032 -39.141,297.473c0,630.872 519.129,1150 1150,1150c100.442,0 200.451,-13.159 297.474,-39.14c-25.981,97.023 -39.14,197.032 -39.14,297.474c-0,630.871 519.128,1150 1150,1150c100.441,-0 200.451,-13.159 297.473,-39.141c-186.687,-186.684 -291.679,-440.153 -291.679,-704.166c0,-264.013 104.992,-517.483 291.679,-704.167l3129.17,-3129.17l3129.17,3129.17c186.687,186.684 291.679,440.154 291.679,704.167c-0,264.013 -104.992,517.482 -291.679,704.166c97.022,25.982 197.032,39.141 297.473,39.141c630.872,-0 1150,-519.129 1150,-1150c0,-100.442 -13.159,-200.451 -39.14,-297.474c97.023,25.981 197.032,39.14 297.474,39.14c630.871,0 1150,-519.128 1150,-1150c-0,-100.441 -13.159,-200.451 -39.141,-297.473c-186.684,186.687 -440.153,291.679 -704.166,291.679c-264.013,-0 -517.483,-104.992 -704.167,-291.679l-3129.17,-3129.17Z" style="fill:#191970;fill-rule:nonzero;"/>
</svg>
