<?xml version="1.0" encoding="UTF-8" standalone="no"?>
<!DOCTYPE svg PUBLIC "-//W3C//DTD SVG 1.1//EN" "http://www.w3.org/Graphics/SVG/1.1/DTD/svg11.dtd">
<svg
width="100%"
height="100%"
viewBox="0 0 2048 2048"
version="1.1"
xmlns="http://www.w3.org/2000/svg"
xmlns:xlink="http://www.w3.org/1999/xlink"
xml:space="preserve"
xmlns:serif="http://www.serif.com/"
>
<path
fill="#00ff66"
d="
M 0, 0
V 2048
H 2048
V 0
H 0
Z"/>

<path
fill="#FFff66"
d="
M 2048, 1024
L 1024, 0000
L 0000, 1024
L 1024, 2048
L 2048, 1024
Z"/>


    <g id="Axis" stroke="black" stroke-width="0.9 px">
        <ellipse cx="1024" cy="1024" rx="1024" ry="1024" style="fill:rgb(246,246,246);fill-opacity:0;stroke:black;stroke-width:0.9px;"/>
        <path d="M 0,    0    L 2048, 2048"/>
        <path d="M 1024, 0    L 1024, 2048"/>
        <path d="M 2048, 0    L 0,    2048"/>
        <path d="M 0,    1024 L 2048, 1024"/>
    </g>

<path
fill="#ff6677"
d="
M 1024, 1024
m +24, 0
l +500, +500
a +24, +24 0 0, 0 +24, 0
l +500, -500
l -500, -500
a +24, +24 0 0, 0 -24, 0
l -500, +500
Z"/>
<path
fill="#ff6677"
d="
M 1024, 1024
m 0 -24
l +500, -500
a +24, +24 0 0, 0 0, -24
l -500, -500
l -500, +500
a +24, +24 0 0, 0 0, +24
l +500, +500
Z"/>
<path
fill="#ff6677"
d="
M 1024, 1024
m -24, 0
l -500, -500
a +24, +24 0 0, 0 -24, 0
l -500, +500
l +500, +500
a +24, +24 0 0, 0 +24, 0
l +500, -500
Z"/>
<path
fill="#ff6677"
d="
M 1024, 1024
m 0 +24
l -500, +500
a +24, +24 0 0, 0 0, +24
l +500, +500
l +500, -500
a +24, +24 0 0, 0 0, -24
l -500, -500
Z"/>



<path 
fill="#00443C"
d="
M 1024, 1024
m 155.563, 0

l +344.361, -344.361
a +110, +110 0 0, 1 +155.563, +00.00
a +127, +127 0 0, 0 -155.563, -155.563
a +127, +127 0 0, 0 -155.563, -155.563
a +110, +110 0 0, 1 +00.00, +155.563
l -344.361, +344.361

l -344.361, -344.361
a +110, +110 0 0, 1 +00.00, -155.563
a +127, +127 0 0, 0 -155.563, +155.563
a +127, +127 0 0, 0 -155.563, +155.563
a +110, +110 0 0, 1 +155.563, +00.00
l +344.361, +344.361

l -344.361, +344.361
a +110, +110 0 0, 1 -155.563, +00.00
a +127, +127 0 0, 0 +155.563, +155.563
a +127, +127 0 0, 0 +155.563, +155.563
a +110, +110 0 0, 1 +00.00, -155.563
l +344.361, -344.361

l +344.361, +344.361
a +110, +110 0 0, 1 +00.00, +155.563
a +127, +127 0 0, 0 +155.563, -155.563
a +127, +127 0 0, 0 +155.563, -155.563
a +110, +110 0 0, 1 -155.563, +00.00
l -344.361, -344.361

Z"/>



</svg>
