<?xml version="1.0" standalone="yes"?>
<svg version="2.0" xmlns="http://www.w3.org/2000/svg">
<title>Heraldic Cross Moline</title>
<path transform="translate(500,500) scale(10,10)" d="
m	45, 0
a	8.0852,	8.0852	0	0,	0	000,	-14
a	7,		7		0	0,	1	-07,	+07
h	-31
v	-31
a	7,		7		0	0,	1	+07,	-07
a	8.0852,	8.0852	0	0,	0	-14,	000
a	8.0852,	8.0852	0	0,	0	-14,	000
a	7,		7		0	0,	1	+07,	+07
v	+31
h	-31
a	7,		7		0	0,	1	-07,	-07
a	8.0852,	8.0852	0	0,	0	000,	+14
a	8.0852,	8.0852	0	0,	0	000,	+14
a	7,		7		0	0,	1	+07,	-07
h	+31
v	+31
a	7,		7		0	0,	1	-07,	+07
a	8.0852,	8.0852	0	0,	0	+14,	000
a	8.0852,	8.0852	0	0,	0	+14,	000
a	7,		7		0	0,	1	-07,	-07
v	-31
h	+31
a	7,		7		0	0,	1	+07,	+07
a	8.0852,	8.0852	0	0,	0	000,	-14
z"/>
</svg>