<?xml version="1.0" standalone="yes"?>
<svg version="2.0" xmlns="http://www.w3.org/2000/svg">
<title>Heraldic Cross Moline</title>
<path transform="translate(-200,-200) scale(3.15774193548, 3.15774193548)" d="
M	207,	193
V	162
A	7,	7	0	0,	1	214,	155
A	8.0852,	8.0852	0	0,	0	200,	155
A	8.0852,	8.0852	0	0,	0	186,	155
A	7,	7	0	0,	1	193,	162
V	193
H	162
A	7,	7	0	0,	1	155,	186
A	8.0852,	8.0852	0	0,	0	155,	200
A	8.0852,	8.0852	0	0,	0	155,	214
A	7,	7	0	0,	1	162,	207
H	193
V	238
A	7,	7	0	0,	1	186,	245
A	8.0852,	8.0852	0	0,	0	200,	245
A	8.0852,	8.0852	0	0,	0	214,	245
A	7,	7	0	0,	1	207,	238
V	207
H	238
A	7,	7	0	0,	1	245,	214
A	8.0852,	8.0852	0	0,	0	245,	200
A	8.0852,	8.0852	0	0,	0	245,	186
A	7,	7	0	0,	1	238,	193
H	207
Z"/>
</svg>