<?xml version="1.0" standalone="yes"?>
<svg version="2.0" xmlns="http://www.w3.org/2000/svg">
<title>Heraldic Cross Moline</title>
<path transform="translate(0,0) scale(0.0001,0.0001)" d="
M	2220500,	1779500
V	0803000
A	0221105,	0221105	0	0,	1	2441000,	0582500
A	0255310,	0255310	0	0,	0	2000000,	0582500
A	0255310,	0255310	0	0,	0	1559000,	0582500
A	0221105,	0221105	0	0,	1	1779500,	0803000
V	1779500
H	0803000
A	0221105,	0221105	0	0,	1	0582500,	1559000
A	0255310,	0255310	0	0,	0	0582500,	2000000
A	0255310,	0255310	0	0,	0	0582500,	2441000
A	0221105,	0221105	0	0,	1	0803000,	2220500
H	1779500
V	3197000
A	0221105,	0221105	0	0,	1	1559000,	3417500
A	0255310,	0255310	0	0,	0	2000000,	3417500
A	0255310,	0255310	0	0,	0	2441000,	3417500
A	0221105,	0221105	0	0,	1	2220500,	3197000
V	2220500
H	3197000
A	0221105,	0221105	0	0,	1	3417500,	2441000
A	0255310,	0255310	0	0,	0	3417500,	2000000
A	0255310,	0255310	0	0,	0	3417500,	1559000
A	0221105,	0221105	0	0,	1	3197000,	1779500
H	2220500
Z"/>
</svg>