<?xml version="1.1" standalone="yes"?>
<svg width="5000" height="5000" version="2.0" xmlns="http://www.w3.org/2000/svg">
<title>Heraldic Cross Moline</title>
<path	d="
M	1778.9,		3200
A	221.105,	221.105		0	0,	1	1557.79,	3421.1
A	255.3101,	255.3101	0	0,	0	2000,		3421.1
A	255.3101,	255.3101	0	0,	0	2442.21,	3421.1
A	221.105,	221.105		0	0,	1	2221.1,		3200
V	2221.1
H	3200
A	221.105,	221.105		0	0,	1	3421.1,		2442.21
A	255.3101,	255.3101	0	0,	0	3421.1,		2000
A	255.3101,	255.3101	0	0,	0	3421.1,		1557.79
A	221.105,	221.105		0	0,	1	3200,		1778.9
H	2221.1
V	800
A	221.105,	221.105		0	0,	1	2442.21,	578.895
A	255.3101,	255.3101	0	0,	0	2000,		578.895
A	255.3101,	255.3101	0	0,	0	1557.79,	578.895
A	221.105,	221.105		0	0,	1	1778.9,		800
V	1778.9
H	800
A	221.105,	221.105		0	0,	1	578.895,	1557.79
A	255.3101,	255.3101	0	0,	0	578.895,	2000
A	255.3101,	255.3101	0	0,	0	578.895,	2442.21
A	221.105,	221.105		0	0,	1	800,		2221.1
H	1778.9
Z"/>
</svg>