<?xml version="1.0" standalone="yes"?>
<svg version="2.0" xmlns="http://www.w3.org/2000/svg">
<title>Heraldic Cross Moline</title>
<path transform="translate(10,10) scale(0.0001,0.0001)" d="
M	2121100,	1678900
V	0700000
A	0221105,	0221105	0	0,	1	2342210,	0478895
A	0255310,	0255310	0	0,	0	1900000,	0478895
A	0255310,	0255310	0	0,	0	1457790,	0478895
A	0221105,	0221105	0	0,	1	1678900,	0700000
V	1678900
H	0700000
A	0221105,	0221105	0	0,	1	0478895,	1457790
A	0255310,	0255310	0	0,	0	0478895,	1900000
A	0255310,	0255310	0	0,	0	0478895,	2342210
A	0221105,	0221105	0	0,	1	0700000,	2121100
H	1678900
V	3100000
A	0221105,	0221105	0	0,	1	1457790,	3321100
A	0255310,	0255310	0	0,	0	1900000,	3321100
A	0255310,	0255310	0	0,	0	2342210,	3321100
A	0221105,	0221105	0	0,	1	2121100,	3100000
V	2121100
H	3100000
A	0221105,	0221105	0	0,	1	3321100,	2342210
A	0255310,	0255310	0	0,	0	3321100,	1900000
A	0255310,	0255310	0	0,	0	3321100,	1457790
A	0221105,	0221105	0	0,	1	3100000,	1678900
H	2121100
Z"/>
</svg>