<?xml version="1.0" standalone="yes"?>
<svg version="2.0" xmlns="http://www.w3.org/2000/svg">
<title>Heraldic Cross Moline</title>
<path transform="translate(1000,1000) scale(1,1)" d="
m +707, +000
a +127, +127 0 0, 0 +000, -220
a +110, +110 0 0, 1 -110, +110
h -487
v -487
a +110, +110 0 0, 1 +110, -110
a +127, +127 0 0, 0 -220, +000
a +127, +127 0 0, 0 -220, +000
a +110, +110 0 0, 1 +110, +110
v +487
h -487
a +110, +110 0 0, 1 -110, -110
a +127, +127 0 0, 0 +000, +220
a +127, +127 0 0, 0 +000, +220
a +110, +110 0 0, 1 +110, -110
h +487
v +487
a +110, +110 0 0, 1 -110, +110
a +127, +127 0 0, 0 +220, +000
a +127, +127 0 0, 0 +220, +000
a +110, +110 0 0, 1 -110, -110
v -487
h +487
a +110, +110 0 0, 1 +110, +110
a +127, +127 0 0, 0 +000, -220
z"/>
</svg>
