<?xml version="1.0" standalone="yes"?>
<svg version="2.0" xmlns="http://www.w3.org/2000/svg">
<title>Heraldic Cross Moline</title>
<path transform="scale(0.0001,0.0001)" d="
M	2221100,	1778900
V	0800000
A	0221105,	0221105	0	0,	1	2442210,	0578895
A	0255310,	0255310	0	0,	0	2000000,	0578895
A	0255310,	0255310	0	0,	0	1557790,	0578895
A	0221105,	0221105	0	0,	1	1778900,	0800000
V	1778900
H	0800000
A	0221105,	0221105	0	0,	1	0578895,	1557790
A	0255310,	0255310	0	0,	0	0578895,	2000000
A	0255310,	0255310	0	0,	0	0578895,	2442210
A	0221105,	0221105	0	0,	1	0800000,	2221100
H	1778900
V	3200000
A	0221105,	0221105	0	0,	1	1557790,	3421100
A	0255310,	0255310	0	0,	0	2000000,	3421100
A	0255310,	0255310	0	0,	0	2442210,	3421100
A	0221105,	0221105	0	0,	1	2221100,	3200000
V	2221100
H	3200000
A	0221105,	0221105	0	0,	1	3421100,	2442210
A	0255310,	0255310	0	0,	0	3421100,	2000000
A	0255310,	0255310	0	0,	0	3421100,	1557790
A	0221105,	0221105	0	0,	1	3200000,	1778900
H	2221100
Z"/>
</svg>