<?xml version="1.0" standalone="yes"?>
<svg xmlns="http://www.w3.org/2000/svg" version="1.1" width="3000px" height="3000px">
<title>Heraldic Cross Moline</title>
<desc>Example SVG file</desc>




<path 
transform="translate(500,600) rotate(45)"
style="fill:#fcef3c;stroke:#000000;stroke-width:11.77379513;stroke-opacity:1"
d="
M +440, +000

a +127, +127 0 0, 0 +000, -220
a +110, +110 0 0, 1 -110, +110
h -220
v -220
a +110, +110 0 0, 1 +110, -110
a +127, +127 0 0, 0 -220, +000
a +127, +127 0 0, 0 -220, +000
a +110, +110 0 0, 1 +110, +110
v +220
h -220
a +110, +110 0 0, 1 -110, -110
a +127, +127 0 0, 0 +000, +220
a +127, +127 0 0, 0 +000, +220
a +110, +110 0 0, 1 +110, -110
h +220
v +220
a +110, +110 0 0, 1 -110, +110
a +127, +127 0 0, 0 +220, +000
a +127, +127 0 0, 0 +220, +000
a +110, +110 0 0, 1 -110, -110
v -220
h +220
a +110, +110 0 0, 1 +110, +110
a +127, +127 0 0, 0 +000, -220

Z"/>


<path 
transform="translate(1500,600) rotate(0)"
style="fill:#fcef3c;stroke:#000000;stroke-width:11.77379513;stroke-opacity:1"
d="
M +440, +000

a +127, +127 0 0, 0 +000, -220
a +110, +110 0 0, 1 -110, +110
h -220
v -220
a +110, +110 0 0, 1 +110, -110
a +127, +127 0 0, 0 -220, +000
a +127, +127 0 0, 0 -220, +000
a +110, +110 0 0, 1 +110, +110
v +220
h -220
a +110, +110 0 0, 1 -110, -110
a +127, +127 0 0, 0 +000, +220
a +127, +127 0 0, 0 +000, +220
a +110, +110 0 0, 1 +110, -110
h +220
v +220
a +110, +110 0 0, 1 -110, +110
a +127, +127 0 0, 0 +220, +000
a +127, +127 0 0, 0 +220, +000
a +110, +110 0 0, 1 -110, -110
v -220
h +220
a +110, +110 0 0, 1 +110, +110
a +127, +127 0 0, 0 +000, -220

Z"/>



<path 
transform="translate(1550,1350) rotate(0)"
style="fill:#333333;stroke:#000000;stroke-width:11.77379513;stroke-opacity:1"
d="
M -110, +110


l -487, 0
a +110, +110 0 0, 0 -110, +110
a +127, +127 0 0, 1 +000, -220
a +127, +127 0 0, 1 +000, -220
a +110, +110 0 0, 0 +110, +110
l +487, 0

Z"/>


<path 
transform="translate(-1550,1350) rotate(45)"
style="fill:#fcef3c;stroke:#000000;stroke-width:11.77379513;stroke-opacity:1"
d="
m +707, 0
a +127, +127 0 0, 1 +000, +220
a +110, +110 0 0, 0 -110, -110
h -487
v +487
a +110, +110 0 0, 0 +110, +110
a +127, +127 0 0, 1 -220, +000
a +127, +127 0 0, 1 -220, +000
a +110, +110 0 0, 0 +110, -110
v -487
h -487
a +110, +110 0 0, 0 -110, +110
a +127, +127 0 0, 1 +000, -220
a +127, +127 0 0, 1 +000, -220
a +110, +110 0 0, 0 +110, +110
h +487
v -487
a +110, +110 0 0, 0 -110, -110
a +127, +127 0 0, 1 +220, +000
a +127, +127 0 0, 1 +220, +000
a +110, +110 0 0, 0 -110, +110
v +487
h +487
a +110, +110 0 0, 0 +110, -110
a +127, +127 0 0, 1 +000, +220
z"/>



<path 
transform="translate(1550,1350) rotate(0)"
style="fill:#fcef3c;stroke:#000000;stroke-width:11.77379513;stroke-opacity:1"
d="

M -110, +110


l -487, 0
t -110, +110
a +127, +127 0 0, 1 +000, -220
a +127, +127 0 0, 1 +000, -220
a +110, +110 0 0, 0 +110, +110
l +487, 0

Z"/>



</svg>
