<?xml version="1.0" standalone="yes"?>
<svg
xmlns="http://www.w3.org/2000/svg"
version="1.1"
width="3000px"
height="3000px"
viewBox="0 0 3000 3000"
background="#FCEF3C"

>
<title>Heraldic Cross Moline</title>
<desc>Example SVG file</desc>


<path
fill="#bf0000"
d="
M 0 0
H 3000
V 3000
H 0
V 0
Z"/>






<path
transform="translate(1300,1300) rotate(45) scale(0.035, 0.035)"
fill="#00ff00"
d="

M -22276 -22276
h +22276
h +22276
v +22276
v +22276
h -22276
h -22276
v -22276
v -22276

Z"/>



<path
transform="translate(1300,1300) rotate(45) scale(0.035, 0.035)"
fill="#ff6677"
stroke="blue"
stroke-width="0"
d="
M 3064, 3064
m 766, 766
h +12846
a +2298, +2298 0 0, 1 +2298, +2298
v +12846
h -12846
a +2298, +2298 0 0, 1 -2298, -2298
v -12846
Z"/>
<path
transform="translate(1300,1300) rotate(45) rotate(90) scale(0.035, 0.035)"
fill="#ff6677"
stroke="blue"
stroke-width="0"
d="
M 3064, 3064
m 766, 766
h +12846
a +2298, +2298 0 0, 1 +2298, +2298
v +12846
h -12846
a +2298, +2298 0 0, 1 -2298, -2298
v -12846
Z"/>
<path
transform="translate(1300,1300) rotate(45) rotate(180) scale(0.035, 0.035)"
fill="#ff6677"
stroke="blue"
stroke-width="0"
d="
M 3064, 3064
m 766, 766
h +12846
a +2298, +2298 0 0, 1 +2298, +2298
v +12846
h -12846
a +2298, +2298 0 0, 1 -2298, -2298
v -12846
Z"/>
<path
transform="translate(1300,1300) rotate(45) rotate(270) scale(0.035, 0.035)"
fill="#ff6677"
stroke="blue"
stroke-width="0"
d="
M 3064, 3064
m 766, 766
h +12846
a +2298, +2298 0 0, 1 +2298, +2298
v +12846
h -12846
a +2298, +2298 0 0, 1 -2298, -2298
v -12846
Z"/>


<path 
transform="translate(1300,1300) rotate(45) rotate(0) scale(0.035, 0.035)"
fill="#FCEF3C"
d="
M 19740 0

a +3538, +3538 0 0, 1 +000, +6128
a +3064, +3064 0 0, 0 -3064, -3064
h -13613
v +13613
a +3064, +3064 0 0, 0 +3064, +3064
a +3538, +3538 0 0, 1 -6128, +000
a +3538, +3538 0 0, 1 -6128, +000
a +3064, +3064 0 0, 0 +3064, -3064
v -13613
h -13613
a +3064, +3064 0 0, 0 -3064, +3064
a +3538, +3538 0 0, 1 +000, -6128
a +3538, +3538 0 0, 1 +000, -6128
a +3064, +3064 0 0, 0 +3064, +3064
h +13613
v -13613
a +3064, +3064 0 0, 0 -3064, -3064
a +3538, +3538 0 0, 1 +6128, +000
a +3538, +3538 0 0, 1 +6128, +000
a +3064, +3064 0 0, 0 -3064, +3064
v +13613
h +13613
a +3064, +3064 0 0, 0 +3064, -3064
a +3538, +3538 0 0, 1 +000, +6128

Z"/>





</svg>
