<?xml version="1.0" standalone="yes"?>
<svg version="2.0" xmlns="http://www.w3.org/2000/svg"
width="2600" height="2600"
>
<title>Heraldic Cross Moline</title>




<path 
transform="translate(350,350) rotate(0)"
style="fill:#fcef3c;stroke:#000000;stroke-width:11.77379513;stroke-opacity:1"
d="
M +440, +000

a +127, +127 0 0, 0 +000, -220
a +110, +110 0 0, 1 -110, +110
h -220
v -220
a +110, +110 0 0, 1 +110, -110
a +127, +127 0 0, 0 -220, +000
a +127, +127 0 0, 0 -220, +000
a +110, +110 0 0, 1 +110, +110
v +220
h -220
a +110, +110 0 0, 1 -110, -110
a +127, +127 0 0, 0 +000, +220
a +127, +127 0 0, 0 +000, +220
a +110, +110 0 0, 1 +110, -110
h +220
v +220
a +110, +110 0 0, 1 -110, +110
a +127, +127 0 0, 0 +220, +000
a +127, +127 0 0, 0 +220, +000
a +110, +110 0 0, 1 -110, -110
v -220
h +220
a +110, +110 0 0, 1 +110, +110
a +127, +127 0 0, 0 +000, -220

Z"/>


<path 
transform="translate(1550,1350) rotate(0)"
style="fill:#fcef3c;stroke:#000000;stroke-width:11.77379513;stroke-opacity:1"
d="
M -110, +110


l -487, 0
a +110, +110 0 0, 0 -110, +110
a +127, +127 0 0, 1 +000, -220
a +127, +127 0 0, 1 +000, -220
a +110, +110 0 0, 0 +110, +110
l +487, 0
l 0, -487
a +110, +110 0 0, 0 -110, -110
a +127, +127 0 0, 1 +220, +000
a +127, +127 0 0, 1 +220, +000
a +110, +110 0 0, 0 -110, +110
l 0, +487
l +487, 0
a +110, +110 0 0, 0 +110, -110
a +127, +127 0 0, 1 +000, +220
a +127, +127 0 0, 1 +000, +220
a +110, +110 0 0, 0 -110, -110
l -487, 0
l 0, +487
a +110, +110 0 0, 0 +110, +110
a +127, +127 0 0, 1 -220, +000
a +127, +127 0 0, 1 -220, +000
a +110, +110 0 0, 0 +110, -110
l 0, -487

Z"/>





</svg>
