<?xml version="1.0" encoding="UTF-8" standalone="no"?>
<!DOCTYPE svg PUBLIC "-//W3C//DTD SVG 1.1//EN"
"http://www.w3.org/Graphics/SVG/1.1/DTD/svg11.dtd">
<svg
    width="100%"
    height="100%"
    viewBox="0 0 4356 4356"
    version="1.1"
    xmlns="http://www.w3.org/2000/svg"
    xmlns:xlink="http://www.w3.org/1999/xlink"
    xml:space="preserve"
    xmlns:serif="http://www.serif.com/"
    style="background-color:#B2FFFF;"
>
<path fill="#191970" d="
M 2178 2178
m +478.0041840821062 +000
l +681 +681
a +140.00418408210615 +140.00418408210615 0 0 0 +197.9958159178939 0
l +681 -681
l -681 -681
a +140.00418408210615 +140.00418408210615 0 0 0 -197.9958159178939 0
l -681 +681
Z"
/>
<path fill="#191970" d="
M 2178 2178
m +000 -478.0041840821062
l +681 -681
a +140.00418408210615 +140.00418408210615 0 0 0 0 -197.9958159178939
l -681 -681
l -681 +681
a +140.00418408210615 +140.00418408210615 0 0 0 0 +197.9958159178939
l +681 +681
Z"
/>
<path fill="#191970" d="
M 2178 2178
m -478.0041840821062 -000
l -681 -681
a +140.00418408210615 +140.00418408210615 0 0 0 -197.9958159178939 0
l -681 +681
l +681 +681
a +140.00418408210615 +140.00418408210615 0 0 0 +197.9958159178939 0
l +681 -681
Z"
/>
<path fill="#191970" d="
M 2178 2178
m -000 +478.0041840821062
l -681 +681
a +140.00418408210615 +140.00418408210615 0 0 0 0 +197.9958159178939
l +681 +681
l +681 -681
a +140.00418408210615 +140.00418408210615 0 0 0 0 -197.9958159178939
l -681 -681
Z"
/>
<path fill="#191970" d="
M 2178 2178
m +338.0 +000
l +751 -751
a +239.0020920410531 +239.0020920410531 0 0 1 +338.0 -000
a +275.97584435357146 +275.97584435357146 0 0 0 -338.0 -338.0
a +275.97584435357146 +275.97584435357146 0 0 0 -338.0 -338.0
a +239.0020920410531 +239.0020920410531 0 0 1 -000 +338.0
l -751 +751
l -751 -751
a +239.0020920410531 +239.0020920410531 0 0 1 -000 -338.0
a +275.97584435357146 +275.97584435357146 0 0 0 -338.0 +338.0
a +275.97584435357146 +275.97584435357146 0 0 0 -338.0 +338.0
a +239.0020920410531 +239.0020920410531 0 0 1 +338.0 +000
l +751 +751
l -751 +751
a +239.0020920410531 +239.0020920410531 0 0 1 -338.0 +000
a +275.97584435357146 +275.97584435357146 0 0 0 +338.0 +338.0
a +275.97584435357146 +275.97584435357146 0 0 0 +338.0 +338.0
a +239.0020920410531 +239.0020920410531 0 0 1 +000 -338.0
l +751 -751
l +751 +751
a +239.0020920410531 +239.0020920410531 0 0 1 +000 +338.0
a +275.97584435357146 +275.97584435357146 0 0 0 +338.0 -338.0
a +275.97584435357146 +275.97584435357146 0 0 0 +338.0 -338.0
a +239.0020920410531 +239.0020920410531 0 0 1 -338.0 -000
l -751 -751
Z"
/>
<path fill="#448822" d="
M 2178 2178
m +173.9482681718907 +000
l +248 +248
a +50.94826817189069 +50.94826817189069 0 0 0 +72.05173182810931 0
l +248 -248
l -248 -248
a +50.94826817189069 +50.94826817189069 0 0 0 -72.05173182810931 0
l -248 +248
Z"
/>
<path fill="#448822" d="
M 2178 2178
m +000 -173.9482681718907
l +248 -248
a +50.94826817189069 +50.94826817189069 0 0 0 0 -72.05173182810931
l -248 -248
l -248 +248
a +50.94826817189069 +50.94826817189069 0 0 0 0 +72.05173182810931
l +248 +248
Z"
/>
<path fill="#448822" d="
M 2178 2178
m -173.9482681718907 -000
l -248 -248
a +50.94826817189069 +50.94826817189069 0 0 0 -72.05173182810931 0
l -248 +248
l +248 +248
a +50.94826817189069 +50.94826817189069 0 0 0 +72.05173182810931 0
l +248 -248
Z"
/>
<path fill="#448822" d="
M 2178 2178
m -000 +173.9482681718907
l -248 +248
a +50.94826817189069 +50.94826817189069 0 0 0 0 +72.05173182810931
l +248 +248
l +248 -248
a +50.94826817189069 +50.94826817189069 0 0 0 0 -72.05173182810931
l -248 -248
Z"
/>
<path fill="#448822" d="
M 2178 2178
m +123.0 +000
l +273 -273
a +86.97413408594535 +86.97413408594535 0 0 1 +123.0 -000
a +100.42907945411031 +100.42907945411031 0 0 0 -123.0 -123.0
a +100.42907945411031 +100.42907945411031 0 0 0 -123.0 -123.0
a +86.97413408594535 +86.97413408594535 0 0 1 -000 +123.0
l -273 +273
l -273 -273
a +86.97413408594535 +86.97413408594535 0 0 1 -000 -123.0
a +100.42907945411031 +100.42907945411031 0 0 0 -123.0 +123.0
a +100.42907945411031 +100.42907945411031 0 0 0 -123.0 +123.0
a +86.97413408594535 +86.97413408594535 0 0 1 +123.0 +000
l +273 +273
l -273 +273
a +86.97413408594535 +86.97413408594535 0 0 1 -123.0 +000
a +100.42907945411031 +100.42907945411031 0 0 0 +123.0 +123.0
a +100.42907945411031 +100.42907945411031 0 0 0 +123.0 +123.0
a +86.97413408594535 +86.97413408594535 0 0 1 +000 -123.0
l +273 -273
l +273 +273
a +86.97413408594535 +86.97413408594535 0 0 1 +000 +123.0
a +100.42907945411031 +100.42907945411031 0 0 0 +123.0 -123.0
a +100.42907945411031 +100.42907945411031 0 0 0 +123.0 -123.0
a +86.97413408594535 +86.97413408594535 0 0 1 -123.0 -000
l -273 -273
Z"
/>
</svg>
